<svg version="1.1" id="Layer_1" xmlns="http://www.w3.org/2000/svg" xmlns:xlink="http://www.w3.org/1999/xlink" x="0px" y="0px"
	 width="100%" viewBox="0 0 576 576" enable-background="new 0 0 576 576" xml:space="preserve">
<defs>
  <linearGradient id="annotune-bg" x1="0" y1="0" x2="0" y2="1">
    <stop offset="0%" stop-color="#f7f0e8"/>
    <stop offset="100%" stop-color="#fffaf4"/>
  </linearGradient>
</defs>
<path fill="url(#annotune-bg)" opacity="1.000000" stroke="none" 
	d="
M545.235046,328.000000 
	C545.231812,368.164001 544.649902,407.838623 545.378662,447.489166 
	C546.189575,491.605713 513.402466,526.173279 475.039795,533.864380 
	C470.650269,534.744446 466.188110,535.290466 461.654236,535.289001 
	C346.828613,535.252930 232.002914,535.317871 117.177353,535.235229 
	C75.172653,535.204956 38.540047,503.104645 32.889454,461.587646 
	C32.195911,456.491943 32.074051,451.287506 32.071770,446.133301 
	C32.026531,343.973633 31.990513,241.813934 32.059830,139.654312 
	C32.090515,94.423653 63.203011,59.019764 108.040115,52.934654 
	C110.338440,52.622730 112.696861,52.688004 115.027313,52.687786 
	C230.852905,52.677002 346.678528,52.641300 462.504089,52.698219 
	C503.200562,52.718216 539.361328,85.072487 544.417603,125.572182 
	C544.998474,130.225342 545.242065,134.848297 545.241516,139.513306 
	C545.234619,202.175537 545.235596,264.837769 545.235046,328.000000 
M499.485504,97.013405 
	C488.825439,87.186172 476.634796,81.198364 461.772278,81.204544 
	C346.299744,81.252563 230.827194,81.222725 115.354645,81.234596 
	C112.366768,81.234909 109.393112,81.229790 106.412819,81.884048 
	C78.945656,87.913948 60.370094,110.788017 60.362011,138.875000 
	C60.332226,242.350357 60.342651,345.825714 60.321438,449.301056 
	C60.320511,453.826233 60.849655,458.286377 62.035580,462.625275 
	C69.483185,489.873535 91.448463,506.620880 119.721626,506.628998 
	C169.376450,506.643219 219.031265,506.623016 268.686096,506.619385 
	C332.004303,506.614746 395.322693,506.527100 458.640686,506.642365 
	C493.907562,506.706573 517.150085,474.726746 516.982483,448.414795 
	C516.325439,345.276825 516.671631,242.132156 516.754883,138.990051 
	C516.767944,122.786926 510.952148,109.165184 499.485504,97.013405 
z"/>
<path fill="#8f5a32" opacity="1.000000" stroke="none" 
	d="
M173.722412,193.000793 
	C173.722916,188.335922 173.682693,184.170334 173.732178,180.005829 
	C173.857834,169.433121 178.601700,163.104614 188.936676,160.650894 
	C217.415329,153.889496 245.945633,147.345718 274.450928,140.696228 
	C285.136230,138.203644 295.792603,135.585190 306.492004,133.155563 
	C316.764832,130.822800 322.247772,135.218430 322.253845,145.756592 
	C322.281128,193.072021 322.265137,240.387497 322.280334,287.702942 
	C322.281097,290.057434 322.063934,292.233704 320.778168,294.383270 
	C309.238251,313.675781 297.960144,333.126678 286.265472,352.324127 
	C278.706451,364.732635 273.716248,366.036896 260.178314,360.482483 
	C246.987000,355.070312 239.084808,345.365265 237.829758,331.154755 
	C236.422256,315.218170 244.151382,303.517029 257.193176,295.386230 
	C269.195953,287.903229 282.277222,286.879547 295.579987,291.743195 
	C299.866058,293.310242 300.839874,292.018158 300.824799,287.914490 
	C300.728058,261.591461 300.784424,235.267899 300.745850,208.944565 
	C300.737549,203.268417 300.061737,202.719955 294.654297,203.996445 
	C263.730530,211.296310 232.847595,218.773911 201.870834,225.840622 
	C196.461472,227.074646 195.142746,229.501343 195.169693,234.715179 
	C195.366013,272.699799 194.605515,310.701599 195.506516,348.665710 
	C196.033386,370.866364 179.344025,390.450439 158.500107,395.194733 
	C144.349716,398.415558 130.877960,397.250641 119.024414,388.354492 
	C103.516594,376.715790 101.563599,355.476105 114.094116,339.438110 
	C126.359253,323.739777 149.074493,316.666504 168.052185,322.636292 
	C173.386383,324.314240 173.695877,324.128296 173.698868,318.452393 
	C173.720856,276.801788 173.717743,235.151184 173.722412,193.000793 
z"/>
<path fill="#c69a6d" opacity="1.000000" stroke="none" 
	d="
M335.403259,425.405640 
	C316.939758,440.488037 298.753662,455.348053 280.551239,470.187958 
	C277.592987,472.599762 274.749146,475.185883 270.796021,476.000580 
	C263.325836,477.540131 257.388641,471.703156 259.296844,464.313416 
	C266.034607,438.221039 272.898987,412.161224 279.778656,386.105774 
	C280.194427,384.531036 281.047028,383.034424 281.887115,381.614319 
	C308.512115,336.606506 335.155212,291.609467 361.808197,246.618240 
	C374.624054,224.984558 387.464813,203.365631 400.295441,181.740738 
	C403.768341,175.887482 406.238312,174.948547 412.017303,178.357620 
	C428.228088,187.920486 444.335968,197.659988 460.398285,207.470825 
	C464.826965,210.175858 465.160065,212.689545 462.105774,217.581177 
	C442.345154,249.229263 423.545898,281.455322 404.390442,313.467072 
	C383.609741,348.194855 362.865936,382.944672 342.119476,417.692902 
	C340.401276,420.570770 338.634796,423.380188 335.403259,425.405640 
M316.029602,417.570251 
	C317.254608,416.323700 319.211090,415.630127 319.211334,412.873169 
	C313.539124,409.362274 307.692200,405.631927 301.731445,402.093384 
	C297.851379,399.790009 295.540527,400.742371 294.409546,405.181244 
	C292.158203,414.017273 290.125000,422.908813 287.976074,431.771179 
	C287.462646,433.888550 286.605042,436.145325 288.975006,437.607422 
	C291.393433,439.099396 293.032623,437.117767 294.625763,435.777649 
	C301.615295,429.898071 308.544922,423.947266 316.029602,417.570251 
z"/>
<path fill="#dec9ab" opacity="1.000000" stroke="none" 
	d="
M442.698914,180.350266 
	C434.246094,175.292160 426.104950,170.421005 417.961304,165.553986 
	C412.931000,162.547668 412.150848,160.065216 415.069031,154.886658 
	C418.091248,149.523468 421.276550,144.246033 424.556610,139.035614 
	C430.443512,129.684265 441.497925,126.956093 451.127228,132.554733 
	C460.910645,138.242981 470.609863,144.078156 480.288116,149.944443 
	C489.641541,155.613861 492.639099,164.948486 487.749054,174.841721 
	C484.515198,181.384277 480.420258,187.504318 476.654205,193.779541 
	C474.559448,197.270004 471.754852,197.925858 468.222076,195.771515 
	C459.839020,190.659348 451.416260,185.612305 442.698914,180.350266 
z"/>
</svg>
