<svg xmlns="http://www.w3.org/2000/svg" viewBox="0 0 160 160">
  <defs>
    <linearGradient id="bg" x1="0" y1="0" x2="0" y2="1">
      <stop offset="0%" stop-color="#dec9ab" />
      <stop offset="100%" stop-color="#cdb18f" />
    </linearGradient>
  </defs>
  <rect width="160" height="160" rx="26" ry="26" fill="url(#bg)" />
  <rect x="12" y="12" width="136" height="136" rx="24" ry="24" fill="none" stroke="#5a321a" stroke-width="10" />
  <!-- musical note -->
  <path d="M52 108a12 12 0 1 0 8 11.3V60h28v30.3a12 12 0 1 0 8 11.3V44H52z" fill="#5a321a" />
  <!-- pencil -->
  <g transform="rotate(-20 108 92)">
    <rect x="92" y="54" width="12" height="70" rx="6" fill="#5a321a" />
    <rect x="104" y="54" width="20" height="70" rx="6" fill="#744427" />
    <polygon points="124,124 136,150 112,150" fill="#5a321a" />
    <polygon points="112,150 136,150 128,160" fill="#d8c9b5" />
  </g>
</svg>
